#!OML:ASF F:\VICON\USERDATA\INSTALL\rory3\rory3.ASF
:FULLY-SPECIFIED
:DEGREES
36
root -5.958084442268396 17.79835256190907 3.1655184013679545 -8.300609923791953 32.57632292167348 -20.918494727209534
lfemur -3.5223795369819975 18.716939313575324 5.951026628060495
ltibia 34.74244742806265
lfoot 4.162988321480653 15.063982206181043
ltoes -29.159759104313785
rfemur -28.982014178871566 19.666433545343942 26.183811590586494
rtibia 29.740560916827498
rfoot -3.0185290929485094 27.368205162082035
rtoes 44.579691296228646
lowerback -0.22394052975691103 -9.639347707779468 -13.988887887453414
upperback -2.5098287383605866 -13.082259826481835 -5.021265797814674
thorax 0.008714335272328011 -6.388378881632587 2.817915698307557
lowerneck -6.446776944165409 19.851305174684466 0.04825595825052964
upperneck 11.775260651242096 29.00992345902872 -12.723572192887826
head 6.76889085444959 13.247153655225672 -1.6302023144481073
lclavicle -6.7835416845628175e-15 -1.1793846859917709e-14
lhumerus 110.30639467429401 -40.124315891112545 41.809182330129175
lradius 39.3198490271648
lwrist -1.1444590896466202
lhand -30.543384829340646 -7.367214784820106
lfingers 7.125020000000001
lthumb -183.81596455481957 48.191587724979684
rclavicle -6.783541684562822e-15 -1.1793846859917709e-14
rhumerus 30.963399031125817 -23.74204178116762 -56.55390264652706
rradius 108.09527791096082
rwrist 10.548941411899712
rhand -63.26857532304858 35.88393769881465
rfingers 7.125020000000001
rthumb -35.283065164848594 8.522623966565103
37
root -5.945808132978112 17.80951227672159 3.2199661074259907 -8.3716013128723 32.43658855300008 -20.8128726240637
lfemur -3.252171173235089 18.477237822726043 6.007495007798216
ltibia 34.94291127389446
lfoot 4.829809090943493 14.696068213519071
ltoes -29.66702533881855
rfemur -28.524713954469497 19.701537981295075 26.01395755058722
rtibia 29.525050517630564
rfoot -2.9988606613745974 27.444011050369348
rtoes 45.664714785457406
lowerback -0.27318940197240904 -9.47705044135088 -13.97945395879874
upperback -2.488922185210507 -12.923875739539838 -5.031845838504717
thorax -0.003178944834032915 -6.325519940347927 2.7654708060767703
lowerneck -6.151188840562119 19.80872831209981 0.2841558124507503
upperneck 11.52948656237914 28.897340047106702 -12.748264693640854
head 6.726213103685339 13.22191134792037 -1.712027089307871
lclavicle -6.509392393622709e-15 -1.1565098876595594e-14
lhumerus 110.88113240967468 -39.31076231123994 42.22027352354933
lradius 39.853652214008854
lwrist -1.0880051562852273
lhand -31.669587132598394 -7.899603818454395
lfingers 7.125020000000001
lthumb -184.90019589222402 52.33568928528504
rclavicle -6.5093923936227074e-15 -1.1565098876595594e-14
rhumerus 31.291375670699495 -24.947585977186854 -54.22069500408976
rradius 108.32370835796561
rwrist 11.810609362761582
rhand -63.74712963374844 36.32152988397327
rfingers 7.125020000000001
rthumb -35.74209076643131 8.987652423502468
38
root -5.934355398106598 17.820361157461956 3.24531464828615 -9.959454657893374 31.93194994005158 -22.290987544404132
lfemur -3.1201481269881324 18.199053591601928 6.004947417759011
ltibia 35.065618516571654
lfoot 5.395954041356149 14.1065545732513
ltoes -30.2618982005799
rfemur -28.194101402092038 19.773841949429816 25.809149304915202
rtibia 29.35121558927376
rfoot -2.8907157886359913 27.237505785349683
rtoes 46.454664539548965
lowerback -0.28091593815838767 -9.338582353774123 -13.973697402493386
upperback -2.5155115471961453 -12.853340794154619 -5.073864098034024
thorax -0.066857442394893 -6.32632381431659 2.6927800953464462
lowerneck -6.012754792849224 19.68388058747806 0.37256600545019036
upperneck 11.293054436522459 28.68614857386532 -12.74089902250044
head 6.6665890811652995 13.145976706915953 -1.7478933434693587
lclavicle -6.523581387558474e-15 -1.157456728411814e-14
lhumerus 111.31028272147117 -38.722377648377595 42.23318891629784
lradius 40.18968981985151
lwrist -1.2144262100288579
lhand -31.959116448024076 -7.879945760294895
lfingers 7.125020000000001
lthumb -185.17972962314929 60.514007110489494
rclavicle -6.52358138755847e-15 -1.1574567284118137e-14
rhumerus 31.555045816272035 -26.140206279201458 -52.4859407457302
rradius 108.08900895524044
rwrist 12.198017343143047
rhand -64.25619237671583 36.5627607209191
rfingers 7.125020000000001
rthumb -36.230396986994066 9.250625866281819
39
root -5.917741402037165 17.832299569098637 3.2910664039511275 -10.906200101543092 31.726552576957847 -23.13264475068975
lfemur -2.805956438444529 18.273594495037674 6.159385930008311
ltibia 35.24935722164997
lfoot 5.844244653693967 13.681244999645829
ltoes -31.491797745780087
rfemur -27.781287914264688 19.92657326170682 25.626529768245337
rtibia 29.185854030406773
rfoot -2.8649531570432556 27.363920631168718
rtoes 47.51186704220464
lowerback -0.22259601164187082 -9.159457544668538 -13.950374009878239
upperback -2.442257806839452 -12.710347013560757 -5.068669091835904
thorax -0.1078010751025758 -6.278418586776722 2.691113388080788
lowerneck -5.795952885215566 19.722293342584127 0.5120943111913644
upperneck 11.292917696628503 28.71040194776825 -12.67082182864064
head 6.653391362301248 13.183312431279177 -1.7731262349134411
lclavicle -6.109776193495709e-15 -1.1202742945435429e-14
lhumerus 111.87689363341619 -38.37778127179585 42.05406451046433
lradius 40.48596713554074
lwrist -1.023859726013292
lhand -31.915461781726968 -7.431709658733386
lfingers 7.125020000000001
lthumb -185.13889963754258 71.07745879606506
rclavicle -6.109776193495704e-15 -1.1202742945435429e-14
rhumerus 31.548094143580336 -26.929562688742077 -50.88525508003116
rradius 107.84409963751318
rwrist 12.09684236834051
rhand -64.45145476825195 36.90552511518531
rfingers 7.125020000000001
rthumb -36.41545721169972 9.62505667572115
